<svg width="24" height="24" viewBox="0 0 24 24" fill="none" xmlns="http://www.w3.org/2000/svg">
  <path d="M4 4.5C4 3.67 4.67 3 5.5 3H10.5C11.33 3 12 3.67 12 4.5V20.5C12 19.67 11.33 19 10.5 19H5.5C4.67 19 4 19.67 4 20.5V4.5Z" stroke="currentColor" stroke-width="1.75" stroke-linejoin="round" fill="none"/>
  <path d="M20 4.5C20 3.67 19.33 3 18.5 3H13.5C12.67 3 12 3.67 12 4.5V20.5C12 19.67 12.67 19 13.5 19H18.5C19.33 19 20 19.67 20 20.5V4.5Z" stroke="currentColor" stroke-width="1.75" stroke-linejoin="round" fill="none"/>
</svg>
