<svg width="24" height="24" viewBox="0 0 24 24" fill="none" xmlns="http://www.w3.org/2000/svg">
<path fill-rule="evenodd" clip-rule="evenodd" d="M2 12C2 6.47715 6.47715 2 12 2C17.5228 2 22 6.47715 22 12C22 17.5228 17.5228 22 12 22C10.4774 22 9.02244 21.6617 7.75 21.071L4.07143 22.321C3.95342 22.3586 3.82717 22.3623 3.70754 22.3317C3.58791 22.3012 3.48036 22.2376 3.3973 22.1484C3.31423 22.0592 3.25925 21.9483 3.23844 21.8288C3.21764 21.7094 3.23191 21.5867 3.27986 21.475L4.83929 17.7143C4.30536 16.6254 4 15.3636 4 14H2V12ZM12 4C7.58172 4 4 7.58172 4 12C4 13.3347 4.33102 14.5879 4.90289 15.6804L4.98214 15.8214L4.23214 17.7679L6.17857 17.0179L6.31964 17.0971C7.41211 17.669 8.66532 18 10 18H12C16.4183 18 20 14.4183 20 10C20 7.58172 18.4183 4 12 4ZM8 10C8 10.5523 7.55228 11 7 11C6.44772 11 6 10.5523 6 10C6 9.44772 6.44772 9 7 9C7.55228 9 8 9.44772 8 10ZM13 10C13 10.5523 12.5523 11 12 11C11.4477 11 11 10.5523 11 10C11 9.44772 11.4477 9 12 9C12.5523 9 13 9.44772 13 10ZM18 10C18 10.5523 17.5523 11 17 11C16.4477 11 16 10.5523 16 10C16 9.44772 16.4477 9 17 9C17.5523 9 18 9.44772 18 10Z" fill="currentColor"/>
</svg>