<svg width="24" height="24" viewBox="0 0 24 24" fill="none" xmlns="http://www.w3.org/2000/svg">
<path fill-rule="evenodd" clip-rule="evenodd" d="M3 13C3 16.866 6.13401 20 10 20H14C17.866 20 21 16.866 21 13V11C21 7.13401 17.866 4 14 4H10C6.13401 4 3 7.13401 3 11V13ZM22 11C22 7.13401 18.866 4 15 4H9C5.13401 4 2 7.13401 2 11V14C2 17.866 5.13401 21 9 21H13C16.866 21 20 17.866 20 14V13C21.1046 13 22 12.1046 22 11ZM8 11C8 11.5523 7.55228 12 7 12C6.44772 12 6 11.5523 6 11C6 10.4477 6.44772 10 7 10C7.55228 10 8 10.4477 8 11ZM13 11C13 11.5523 12.5523 12 12 12C11.4477 12 11 11.5523 11 11C11 10.4477 11.4477 10 12 10C12.5523 10 13 10.4477 13 11ZM17 11C17 11.5523 16.5523 12 16 12C15.4477 12 15 11.5523 15 11C15 10.4477 15.4477 10 16 10C16.5523 10 17 10.4477 17 11Z" fill="currentColor"/>
</svg>