<svg width="24" height="24" viewBox="0 0 24 24" fill="none" xmlns="http://www.w3.org/2000/svg">
<path fill-rule="evenodd" clip-rule="evenodd" d="M5 2C3.34315 2 2 3.34315 2 5V21C2 21.5523 2.44772 22 3 22C3.55228 22 4 21.5523 4 21V20H21C21.5523 20 22 19.5523 22 19V5C22 3.34315 20.6569 2 19 2H5ZM4 18V5C4 4.44772 4.44772 4 5 4H19C19.5523 4 20 4.44772 20 5V18H4ZM7 8C7 7.44772 7.44772 7 8 7H16C16.5523 7 17 7.44772 17 8C17 8.55228 16.5523 9 16 9H8C7.44772 9 7 8.55228 7 8ZM7 12C7 11.4477 7.44772 11 8 11H13C13.5523 11 14 11.4477 14 12C14 12.5523 13.5523 13 13 13H8C7.44772 13 7 12.5523 7 12Z" fill="currentColor"/>
</svg>