<svg width="24" height="24" viewBox="0 0 24 24" fill="none" xmlns="http://www.w3.org/2000/svg">
  <defs>
    <linearGradient id="surveyGrad" x1="0" y1="0" x2="0" y2="1">
      <stop offset="0%" stop-color="#22C55E" stop-opacity="0.5"/>
      <stop offset="100%" stop-color="#22C55E" stop-opacity="1"/>
    </linearGradient>
    <linearGradient id="lineGrad2" x1="0" y1="0" x2="0" y2="1">
      <stop offset="0%" stop-color="#22C55E" stop-opacity="0.5"/>
      <stop offset="100%" stop-color="#22C55E" stop-opacity="1"/>
    </linearGradient>
  </defs>
  <!-- Clipboard body with gradient fill -->
  <path fill-rule="evenodd" clip-rule="evenodd" d="M5 2C3.34315 2 2 3.34315 2 5V21C2 21.5523 2.44772 22 3 22C3.55228 22 4 21.5523 4 21V20H21C21.5523 20 22 19.5523 22 19V5C22 3.34315 20.6569 2 19 2H5ZM4 18V5C4 4.44772 4.44772 4 5 4H19C19.5523 4 20 4.44772 20 5V18H4Z" fill="url(#surveyGrad)"/>
  <!-- Lines -->
  <rect x="7" y="8" width="10" height="2" rx="0.5" fill="url(#lineGrad2)"/>
  <rect x="7" y="12" width="6" height="2" rx="0.5" fill="url(#lineGrad2)"/>
  <!-- Check accent (top-right) -->
  <path d="M16.5 5.5 L17.7 6.7 L19.5 4.5" stroke="#22C55E" stroke-width="1.5" stroke-linecap="round" stroke-linejoin="round" fill="none"/>
</svg>
