<svg width="24" height="24" viewBox="0 0 24 24" fill="none" xmlns="http://www.w3.org/2000/svg">
<path fill-rule="evenodd" clip-rule="evenodd" d="M12 11C14.2091 11 16 9.20914 16 7C16 4.79086 14.2091 3 12 3C9.79086 3 8 4.79086 8 7C8 9.20914 9.79086 11 12 11ZM12 13C9.9964 13 8.05734 13.3708 6.44484 14.0391C4.83271 14.7073 3.52359 15.6429 2.75736 16.7787C2.37428 17.346 2 18.1145 2 19V20C2 21.1046 2.89543 22 4 22H20C21.1046 22 22 21.1046 22 20V19C22 18.1145 21.6257 17.346 21.2426 16.7787C20.4764 15.6429 19.1673 14.7073 17.5552 14.0391C15.9427 13.3708 14.0036 13 12 13Z" fill="currentColor"/>
</svg>