<svg width="16" height="16" viewBox="0 0 16 16" fill="none" xmlns="http://www.w3.org/2000/svg">
<path fill-rule="evenodd" clip-rule="evenodd" d="M8 16C12.4183 16 16 12.4183 16 8C16 3.58172 12.4183 0 8 0C3.58172 0 0 3.58172 0 8C0 12.4183 3.58172 16 8 16ZM4.70711 4.29289C4.31658 3.90237 3.68342 3.90237 3.29289 4.29289C2.90237 4.68342 2.90237 5.31658 3.29289 5.70711L6.58579 9L3.29289 12.2929C2.90237 12.6834 2.90237 13.3166 3.29289 13.7071C3.68342 14.0976 4.31658 14.0976 4.70711 13.7071L8 10.4142L11.2929 13.7071C11.6834 14.0976 12.3166 14.0976 12.7071 13.7071C13.0976 13.3166 13.0976 12.6834 12.7071 12.2929L9.41421 9L12.7071 5.70711C13.0976 5.31658 13.0976 4.68342 12.7071 4.29289C12.3166 3.90237 11.6834 3.90237 11.2929 4.29289L8 7.58579L4.70711 4.29289Z" fill="currentColor"/>
</svg>